<?xml version="1.0" encoding="UTF-8"?>
<svg version="1.1" xmlns="http://www.w3.org/2000/svg" width="1501" height="1501">
<path d="M0 0 C1.21187988 0.19867676 2.42375977 0.39735352 3.67236328 0.60205078 C72.98480624 12.29868981 135.27157509 41.22897561 186.44873047 89.54589844 C188.53436668 91.50089518 190.64974446 93.42212374 192.76586914 95.34399414 C200.6510935 102.51226677 208.07850847 109.8951123 215 118 C216.23556641 119.40185547 216.23556641 119.40185547 217.49609375 120.83203125 C235.53069255 141.4550795 248.77324269 165.61848221 261 190 C261.43554199 190.86705566 261.87108398 191.73411133 262.31982422 192.62744141 C284.80149462 237.73772123 299.21637136 285.0961508 299.25 335.75 C299.25101212 337.12076691 299.25101212 337.12076691 299.25204468 338.51922607 C299.23558453 352.56757918 298.62865246 366.16834438 296 380 C295.84966309 380.86947266 295.69932617 381.73894531 295.54443359 382.63476562 C291.09276612 408.13362109 282.00936858 433.14826407 271.13037109 456.56591797 C270.07459538 458.83937021 269.04376836 461.1223646 268.01953125 463.41015625 C248.69701683 506.07760521 221.76384729 544.9518446 190.265625 579.48828125 C188.38283409 581.57558221 186.53151803 583.68334443 184.6875 585.8046875 C175.22268256 596.63874853 165.15298133 606.93910626 155 617.125 C154.22366211 617.90593018 153.44732422 618.68686035 152.64746094 619.49145508 C148.47588708 623.65182467 144.21018674 627.62796512 139.74609375 631.47216797 C137.5598008 633.3851743 135.52235995 635.41541359 133.5 637.5 C130.21145472 640.82769463 126.83618376 643.95336441 123.28515625 646.99609375 C120.93521916 649.05680781 118.64966874 651.17474187 116.36572266 653.30786133 C110.96074678 658.35507403 105.44939205 663.15657508 99.6796875 667.7890625 C96.86746685 670.1093495 94.18202737 672.53071134 91.5 675 C87.11105254 679.03510021 82.59137234 682.83830304 77.953125 686.58203125 C74.56641218 689.35501436 71.25058257 692.20239709 67.9375 695.0625 C63.27715995 699.07770646 58.56951556 703.00593197 53.7421875 706.8203125 C50.21955773 709.62035154 46.73681589 712.46807905 43.25 715.3125 C37.64343712 719.8800569 31.99272501 724.38344839 26.29223633 728.83300781 C21.79397557 732.3532198 17.36050612 735.94836844 12.9375 739.5625 C8.15617906 743.4669124 3.34576383 747.31875474 -1.5625 751.0625 C-6.23682596 754.62883758 -10.85333721 758.25606465 -15.4375 761.9375 C-20.29345153 765.83720261 -25.16250182 769.71824557 -30.0625 773.5625 C-30.63750244 774.01375244 -31.21250488 774.46500488 -31.80493164 774.92993164 C-34.6761367 777.18164366 -37.55007211 779.42982535 -40.42578125 781.67578125 C-46.6675179 786.5570372 -52.85958864 791.49170626 -59 796.5 C-65.72225404 801.98166985 -72.5007174 807.38330978 -79.34716797 812.70898438 C-80.94763683 813.95909949 -82.53845248 815.22154279 -84.12890625 816.484375 C-104.53329437 832.52186654 -126.83808121 845.40499335 -150 857 C-150.81001465 857.40750488 -151.6200293 857.81500977 -152.45458984 858.23486328 C-194.42404352 879.04638285 -242.36045896 888.26144811 -288.9375 888.1875 C-290.00824265 888.18659363 -290.00824265 888.18659363 -291.10061646 888.18566895 C-304.14568127 888.15597127 -317.03872739 887.55908757 -330 886 C-330.99918457 885.88172852 -331.99836914 885.76345703 -333.02783203 885.64160156 C-369.33552513 881.14816009 -404.89596181 870.46346833 -438 855 C-438.85110352 854.60731934 -439.70220703 854.21463867 -440.57910156 853.81005859 C-464.22831424 842.80946664 -487.68700553 828.13869574 -506.69921875 810.16015625 C-508.65463407 808.32425697 -510.64738765 806.57311207 -512.6796875 804.82421875 C-524.42052829 794.58662027 -535.48442057 783.33434541 -545 771 C-545.87382361 769.94607277 -546.75170529 768.89550185 -547.6328125 767.84765625 C-586.57350288 721.14527309 -610.06404301 666.38855984 -604.5390625 604.95703125 C-600.20730978 566.38625443 -584.19162406 528.42838562 -557.1796875 500.3203125 C-554.88287906 498.00349353 -554.88287906 498.00349353 -553 495 C-560.03977476 493.33466669 -566.71004001 492.64411045 -573.9375 492.6875 C-574.93749023 492.69313965 -575.93748047 492.6987793 -576.96777344 492.70458984 C-613.60390025 493.29211744 -645.75525533 509.4813886 -674.16552734 531.57421875 C-675.90154816 532.92348167 -677.64590758 534.26087942 -679.39453125 535.59375 C-686.13830992 540.74100929 -692.81418235 545.97457451 -699.4765625 551.2265625 C-701.77844308 553.04089639 -704.08560629 554.84808591 -706.3984375 556.6484375 C-713.58871169 562.25394183 -720.65910078 567.98752767 -727.6784668 573.80566406 C-732.10531802 577.46657034 -736.58364342 581.045067 -741.125 584.5625 C-746.78628821 588.95660252 -752.21257293 593.58261259 -757.60375977 598.30273438 C-762.05611483 602.19847251 -766.59349004 605.96798228 -771.19140625 609.69140625 C-774.50298366 612.41343997 -777.75316116 615.20136324 -781 618 C-785.10235153 621.53605226 -789.22801677 625.02863171 -793.4375 628.4375 C-799.78276881 633.59186792 -805.92509448 638.97362765 -812.09033203 644.34033203 C-819.23391241 650.54872623 -826.39645872 656.72823972 -833.75 662.6875 C-838.12507747 666.23745321 -842.30549192 669.95563821 -846.46875 673.75 C-849.97799486 676.86932876 -853.63162123 679.79749133 -857.28125 682.75 C-859.92147729 684.93501569 -862.4672972 687.19171391 -865 689.5 C-869.19729034 693.32170863 -873.53710231 696.91474189 -877.94921875 700.484375 C-881.52056624 703.42925052 -885.0121164 706.45720087 -888.5 709.5 C-892.80418828 713.25282532 -897.12761448 716.96364592 -901.5625 720.5625 C-935.3033102 747.97690829 -959.09671923 779.9578779 -964.25 824.25 C-967.97405727 860.73956734 -957.99191261 899.12746359 -935 928 C-934.2678125 928.93457031 -933.535625 929.86914062 -932.78125 930.83203125 C-911.42842318 957.55962784 -881.70710735 973.26570784 -847.81640625 977.58203125 C-788.40620098 983.5995456 -738.37135691 960.3088932 -693.07373047 924.6328125 C-691.14720757 923.1159082 -689.21704844 921.60380662 -687.28515625 920.09375 C-681.32724439 915.43240428 -675.40259825 910.73117117 -669.5 906 C-662.37047265 900.28539553 -655.1994516 894.62619682 -648 889 C-647.33162109 888.47712402 -646.66324219 887.95424805 -645.97460938 887.41552734 C-641.46502 883.88967804 -636.94461528 880.37814639 -632.41699219 876.87548828 C-629.98243539 874.98637057 -627.55768304 873.08512137 -625.1328125 871.18359375 C-570.76836942 828.83783459 -570.76836942 828.83783459 -551 831 C-531.05220904 835.22190462 -513.19547963 850.17154918 -498 863 C-496.98035156 863.83402344 -495.96070313 864.66804687 -494.91015625 865.52734375 C-478.10306925 879.41731285 -462.18294543 895.00321525 -450.0625 913.1875 C-449.68391846 913.74614746 -449.30533691 914.30479492 -448.9152832 914.88037109 C-443.22554996 923.74089782 -442.88562273 933.55783594 -445 943.625 C-449.72567881 960.82735419 -460.76875118 975.49406787 -472 989 C-473.11568359 990.39412109 -473.11568359 990.39412109 -474.25390625 991.81640625 C-481.37381727 1000.54715064 -489.29198724 1008.48031784 -497.25 1016.4375 C-497.81716736 1017.00557373 -498.38433472 1017.57364746 -498.96868896 1018.15893555 C-505.13740125 1024.32653454 -511.35392727 1030.34298536 -518 1036 C-519.60768373 1037.45445517 -521.21239715 1038.91220895 -522.8125 1040.375 C-527.10608632 1044.25033743 -531.53088002 1047.9222131 -536.02734375 1051.55859375 C-539.33751811 1054.2771995 -542.57485499 1057.07095217 -545.8125 1059.875 C-552.13824414 1065.33515244 -558.64554676 1070.52376768 -565.25 1075.64111328 C-568.1771487 1077.91406384 -571.08775641 1080.20800536 -574 1082.5 C-577.53212616 1085.27732648 -581.06586662 1088.0525177 -584.60546875 1090.8203125 C-589.88620499 1094.95331226 -595.14645812 1099.09857863 -600.3125 1103.375 C-617.79229443 1117.70689587 -635.91919696 1130.11487962 -655.82958984 1140.82226562 C-657.86491831 1141.92670033 -659.88099637 1143.05957269 -661.89453125 1144.203125 C-736.45984307 1185.94542875 -827.73250478 1194.14105533 -909.62890625 1172.13671875 C-973.97168395 1153.95269921 -1021.64654492 1121.10231905 -1068.66174316 1074.56842041 C-1069.78191301 1073.46122012 -1070.90445996 1072.35641829 -1072.02966309 1071.2543335 C-1083.0990949 1060.39612494 -1092.55699162 1048.66146348 -1101.0625 1035.6875 C-1101.95098633 1034.34014771 -1101.95098633 1034.34014771 -1102.85742188 1032.96557617 C-1108.19897586 1024.80350228 -1113.24929907 1016.51879286 -1118 1008 C-1118.51498047 1007.07687012 -1119.02996094 1006.15374023 -1119.56054688 1005.20263672 C-1140.22806223 967.9251433 -1157.23993272 931.16444573 -1165 889 C-1165.24991699 887.71657715 -1165.24991699 887.71657715 -1165.50488281 886.40722656 C-1171.10335176 856.81531926 -1170.11978928 823.4031255 -1164 794 C-1163.79101074 792.98711914 -1163.58202148 791.97423828 -1163.36669922 790.93066406 C-1144.51075222 702.7667531 -1088.38681505 628.11052513 -1025.86621094 565.73583984 C-1023.10494716 562.97998645 -1020.3491364 560.21875972 -1017.59375 557.45703125 C-1015.81542508 555.67936641 -1014.03679037 553.90201141 -1012.2578125 552.125 C-1011.44619659 551.31135986 -1010.63458069 550.49771973 -1009.79837036 549.65942383 C-1005.58458844 545.46277934 -1001.30202173 541.41317256 -996.78349304 537.54537964 C-993.65926092 534.83826243 -990.68724541 531.9683133 -987.6875 529.125 C-982.51449801 524.25519644 -977.23004154 519.64221095 -971.67578125 515.20703125 C-968.68502436 512.74020258 -965.83654779 510.14012604 -963 507.5 C-958.449006 503.27038124 -953.7570174 499.27918934 -948.91796875 495.3828125 C-945.54025865 492.62457534 -942.23795401 489.78724685 -938.9375 486.9375 C-934.27720412 482.92224507 -929.56951273 478.99406579 -924.7421875 475.1796875 C-921.21955773 472.37964846 -917.73681589 469.53192095 -914.25 466.6875 C-908.64343712 462.1199431 -902.99272501 457.61655161 -897.29223633 453.16699219 C-892.79397557 449.6467802 -888.36050612 446.05163156 -883.9375 442.4375 C-879.15617906 438.5330876 -874.34576383 434.68124526 -869.4375 430.9375 C-864.76317404 427.37116242 -860.14666279 423.74393535 -855.5625 420.0625 C-850.70654847 416.16279739 -845.83749818 412.28175443 -840.9375 408.4375 C-840.36249756 407.98624756 -839.78749512 407.53499512 -839.19506836 407.07006836 C-836.3238633 404.81835634 -833.44992789 402.57017465 -830.57421875 400.32421875 C-824.33247957 395.44296082 -818.1405072 390.50817852 -812 385.5 C-805.34219682 380.07276338 -798.63906533 374.71116174 -791.85546875 369.44189453 C-790.5623108 368.43697468 -789.27076582 367.42997725 -787.98046875 366.42138672 C-733.03257672 323.51564635 -665.13202393 293.29822474 -594.4921875 292.76171875 C-593.42050323 292.7519249 -592.34881897 292.74213104 -591.24465942 292.73204041 C-567.18925081 292.55759685 -543.74192627 292.79623013 -520 297 C-518.75476563 297.21962402 -517.50953125 297.43924805 -516.2265625 297.66552734 C-483.98203049 303.53685772 -452.58725056 312.8439292 -423 327 C-422.18466797 327.38381836 -421.36933594 327.76763672 -420.52929688 328.16308594 C-395.29890632 340.08350256 -371.85505741 355.44563609 -351 374 C-350.27111572 374.64275879 -349.54223145 375.28551758 -348.79125977 375.94775391 C-342.29865592 381.72109228 -336.08234803 387.73443409 -329.9375 393.875 C-329.00873047 394.79152344 -328.07996094 395.70804688 -327.12304688 396.65234375 C-320.97474612 402.78770072 -315.38388688 409.18803898 -310 416 C-309.07007903 417.14539966 -308.13927271 418.29008194 -307.20703125 419.43359375 C-278.62310272 455.29173573 -257.62111877 494.35764765 -248.8125 539.5625 C-248.6575708 540.35197021 -248.5026416 541.14144043 -248.34301758 541.95483398 C-245.61261655 556.71267386 -244.62070558 571.26718856 -244.6875 586.25 C-244.69023422 587.52910248 -244.69023422 587.52910248 -244.69302368 588.83404541 C-244.79736583 617.87787035 -249.1289583 647.7711095 -268 671 C-268.61488281 671.82757812 -269.22976563 672.65515625 -269.86328125 673.5078125 C-272.32329815 676.37708267 -274.95845791 678.44816463 -278 680.6875 C-279.03125 681.45449219 -280.0625 682.22148438 -281.125 683.01171875 C-283.40245001 684.58674871 -285.52264023 685.80816933 -288 687 C-281.60741111 687.16604127 -275.81644134 686.67437466 -269.5625 685.375 C-268.2621582 685.10550537 -268.2621582 685.10550537 -266.93554688 684.83056641 C-236.76927289 678.29966696 -212.16882882 662.48228848 -188.16064453 643.68847656 C-185.94597294 641.95777953 -183.72221518 640.23937616 -181.49609375 638.5234375 C-173.49575623 632.34658026 -165.57970228 626.07972656 -157.75537109 619.68139648 C-153.56338231 616.25656564 -149.33221626 612.88976567 -145.0625 609.5625 C-133.99862694 600.92375935 -123.22352425 591.92452047 -112.53100586 582.83203125 C-109.21695929 580.01714765 -105.87195144 577.24517661 -102.5 574.5 C-96.8225884 569.87578939 -91.23699995 565.1482319 -85.65722656 560.40722656 C-82.94134234 558.10104556 -80.22042227 555.80082408 -77.5 553.5 C-76.41535225 552.58204582 -75.33071684 551.66407707 -74.24609375 550.74609375 C-72.09348214 548.92455368 -69.93975381 547.10434671 -67.78515625 545.28515625 C-60.41701157 539.06175139 -53.083344 532.79927773 -45.76611328 526.51611328 C-42.26349055 523.50930001 -38.75766627 520.50622029 -35.25244141 517.50244141 C-32.32218196 514.99114114 -29.39270413 512.47894081 -26.46484375 509.96484375 C-20.29418816 504.66790931 -14.10804486 499.39059953 -7.89428711 494.14428711 C-3.91396095 490.7808603 0.04648503 487.39488391 4 484 C10.10312567 478.76019809 16.23596352 473.55664777 22.38232422 468.36767578 C24.02908979 466.97540583 25.67310067 465.57994527 27.31640625 464.18359375 C28.41916481 463.24727095 29.5220287 462.31107218 30.625 461.375 C31.16141113 460.91963867 31.69782227 460.46427734 32.25048828 459.99511719 C35.77546624 457.0117011 39.34502646 454.08967416 42.9375 451.1875 C45.97399312 448.72643561 48.845098 446.24679482 51.5625 443.4375 C52.366875 442.633125 53.17125 441.82875 54 441 C54.66 441 55.32 441 56 441 C56.2475 440.42894531 56.495 439.85789062 56.75 439.26953125 C58.19565697 436.64476031 59.91674416 434.84143774 62 432.6875 C85.55326002 406.76007137 97.60955255 369.81716297 96 335 C94.0223925 301.89517195 81.93587547 266.23761707 57.640625 242.67578125 C55 240 55 240 55 238 C54.42507813 237.75121094 53.85015625 237.50242187 53.2578125 237.24609375 C50.67342265 235.81976094 48.97155015 234.14026386 46.875 232.0625 C21.20110857 208.71577416 -15.11695769 200.44771914 -49 202 C-89.8009944 204.23603129 -129.17728825 219.18312621 -161.08251953 244.49121094 C-163.74719854 246.58794079 -166.46324206 248.60622719 -169.1875 250.625 C-179.09433592 258.03488137 -188.74042823 265.77872227 -198.39160156 273.51660156 C-204.31689438 278.26358654 -210.28479427 282.95501944 -216.26171875 287.63671875 C-218.02015122 289.01580399 -219.77606979 290.39802851 -221.53125 291.78125 C-229.31055143 297.91091798 -237.10422406 304.02069482 -245 310 C-245.67063477 310.50869629 -246.34126953 311.01739258 -247.03222656 311.54150391 C-299.13792629 350.90894792 -299.13792629 350.90894792 -320 349 C-356.84054524 340.04125699 -397.19300367 299.3010978 -418 269 C-424.57516761 257.54691332 -426.86829273 248.41785493 -423.5625 235.375 C-416.73490691 213.66372648 -401.93578331 195.50661557 -386.32470703 179.38964844 C-384.646657 177.62933499 -383.06878142 175.79536891 -381.5 173.9375 C-374.67758011 166.04322861 -367.09784616 158.61104106 -359.14453125 151.86328125 C-356.8381534 149.85937918 -354.60771015 147.7873321 -352.37548828 145.70166016 C-347.04651715 140.72415139 -341.62347311 135.96911195 -335.93359375 131.40234375 C-332.45096441 128.5503903 -329.0722482 125.59172877 -325.6875 122.625 C-319.22463178 116.9800093 -312.56723431 111.64870184 -305.78564453 106.39453125 C-302.64393613 103.9409575 -299.54342895 101.43609328 -296.4375 98.9375 C-291.7502372 95.17246039 -287.02855585 91.46094379 -282.25 87.8125 C-278.38058534 84.85793795 -274.56551437 81.8518064 -270.8125 78.75 C-257.72743496 68.00087545 -244.50028682 57.78120034 -230 49 C-229.22382324 48.52884766 -228.44764648 48.05769531 -227.64794922 47.57226562 C-188.06027991 23.77040786 -144.66419563 7.23226671 -99 0 C-97.99904297 -0.16371094 -96.99808594 -0.32742187 -95.96679688 -0.49609375 C-64.86004277 -5.374794 -31.0470081 -5.15982082 0 0 Z " fill="#FFFFFF" transform="translate(1185,158)"/>
</svg>
